# xmcd CD database file
#
# Track frame offsets:
#	150
#	14545
#	32564
#	51071
#	59096
#	71692
#	83189
#	96383
#	117903
#	131961
#	145102
#	166483
#	185985
#	197560
#	210039
#	223844
#	247480
#
# Disc length: 3518 seconds
#
# Revision: 2
# Processed by: cddbd v1.5.2PL0 Copyright (c) Steve Scherf et al.
# Submitted via: CDex 1.50
#
DISCID=0e0dbc11
DTITLE=Various Artist - Newage Best Vol.2
DYEAR=2010
DGENRE=New Age
TTITLE0=No Young Sim - On The Way To School
TTITLE1=Kevin Kern - Dance Of The Dragonfly
TTITLE2=Jim Brickman - Secret Love
TTITLE3=Daydream - Stepping On The Rainy Street
TTITLE4=Yiruma - Hope
TTITLE5=Steve Barakatt - Pure Smile
TTITLE6=Joe Hisaishi - Sping
TTITLE7=Kevein Kern - Sundial Dream
TTITLE8=Yiruma - River Flows In You
TTITLE9=Daydream - Little Comfort
TTITLE10=Isao Sasaki - My Memory
TTITLE11=Yiruma - Loanna
TTITLE12=Steve Barakatt - Private Lessons
TTITLE13=Yiruma - Mika's Song
TTITLE14=Jim Brickman - If You Believe
TTITLE15=Joe Hisaishi - Jinseino Merry-go-round
TTITLE16=Ryuichi Sakamoto - Rain
EXTD=YEAR: 2010
EXTT0=
EXTT1=
EXTT2=
EXTT3=
EXTT4=
EXTT5=
EXTT6=
EXTT7=
EXTT8=
EXTT9=
EXTT10=
EXTT11=
EXTT12=
EXTT13=
EXTT14=
EXTT15=
EXTT16=
PLAYORDER=
